<mxfile host="app.diagrams.net" agent="Mozilla/5.0 (X11; Ubuntu; Linux x86_64; rv:130.0) Gecko/20100101 Firefox/130.0" version="24.7.17">
  <diagram name="PÃ¡gina-1" id="ckhQ4OLtwh7NOZ8F5UyD">
    <mxGraphModel dx="150" dy="97" grid="1" gridSize="10" guides="1" tooltips="1" connect="1" arrows="1" fold="1" page="1" pageScale="1" pageWidth="850" pageHeight="1100" math="0" shadow="0">
      <root>
        <mxCell id="0" />
        <mxCell id="1" parent="0" />
        <mxCell id="Z4uplLoxIJL1rz2Afq5--176" style="edgeStyle=orthogonalEdgeStyle;rounded=0;orthogonalLoop=1;jettySize=auto;html=1;" edge="1" parent="1" source="Z4uplLoxIJL1rz2Afq5--123">
          <mxGeometry relative="1" as="geometry">
            <mxPoint x="433.94000000000005" y="480" as="targetPoint" />
          </mxGeometry>
        </mxCell>
        <mxCell id="Z4uplLoxIJL1rz2Afq5--123" value="" style="rounded=0;whiteSpace=wrap;html=1;" vertex="1" parent="1">
          <mxGeometry x="37.88" y="120" width="792.12" height="319" as="geometry" />
        </mxCell>
        <mxCell id="Z4uplLoxIJL1rz2Afq5--1" value="" style="rounded=0;whiteSpace=wrap;html=1;fontStyle=1" vertex="1" parent="1">
          <mxGeometry x="391.42" y="375.5" width="60" height="20" as="geometry" />
        </mxCell>
        <mxCell id="Z4uplLoxIJL1rz2Afq5--2" value="" style="triangle;whiteSpace=wrap;html=1;fontStyle=1" vertex="1" parent="1">
          <mxGeometry x="391.42" y="380.5" width="10" height="10" as="geometry" />
        </mxCell>
        <mxCell id="Z4uplLoxIJL1rz2Afq5--3" value="" style="rounded=0;whiteSpace=wrap;html=1;fontStyle=1" vertex="1" parent="1">
          <mxGeometry x="142.18" y="375" width="60" height="20" as="geometry" />
        </mxCell>
        <mxCell id="Z4uplLoxIJL1rz2Afq5--4" value="" style="triangle;whiteSpace=wrap;html=1;fontStyle=1" vertex="1" parent="1">
          <mxGeometry x="142.18" y="380" width="10" height="10" as="geometry" />
        </mxCell>
        <mxCell id="Z4uplLoxIJL1rz2Afq5--5" value="" style="rounded=0;whiteSpace=wrap;html=1;fontStyle=1" vertex="1" parent="1">
          <mxGeometry x="620.8399999999999" y="370" width="60" height="20" as="geometry" />
        </mxCell>
        <mxCell id="Z4uplLoxIJL1rz2Afq5--6" value="" style="triangle;whiteSpace=wrap;html=1;fontStyle=1" vertex="1" parent="1">
          <mxGeometry x="620.8399999999999" y="375" width="10" height="10" as="geometry" />
        </mxCell>
        <mxCell id="Z4uplLoxIJL1rz2Afq5--7" value="" style="rounded=0;whiteSpace=wrap;html=1;fontStyle=1" vertex="1" parent="1">
          <mxGeometry x="262.17" y="375" width="59" height="20" as="geometry" />
        </mxCell>
        <mxCell id="Z4uplLoxIJL1rz2Afq5--8" value="" style="triangle;whiteSpace=wrap;html=1;fontStyle=1" vertex="1" parent="1">
          <mxGeometry x="262.17" y="380" width="10" height="10" as="geometry" />
        </mxCell>
        <mxCell id="Z4uplLoxIJL1rz2Afq5--9" value="" style="whiteSpace=wrap;html=1;aspect=fixed;fontStyle=1" vertex="1" parent="1">
          <mxGeometry x="131.76" y="271" width="80" height="80" as="geometry" />
        </mxCell>
        <mxCell id="Z4uplLoxIJL1rz2Afq5--10" value="" style="whiteSpace=wrap;html=1;aspect=fixed;fontStyle=1" vertex="1" parent="1">
          <mxGeometry x="382" y="271.5" width="80" height="80" as="geometry" />
        </mxCell>
        <mxCell id="Z4uplLoxIJL1rz2Afq5--11" style="edgeStyle=orthogonalEdgeStyle;rounded=0;orthogonalLoop=1;jettySize=auto;html=1;endArrow=none;endFill=0;exitX=0.506;exitY=0.999;exitDx=0;exitDy=0;fontStyle=1;entryX=0.5;entryY=0;entryDx=0;entryDy=0;exitPerimeter=0;" edge="1" parent="1" source="Z4uplLoxIJL1rz2Afq5--12" target="Z4uplLoxIJL1rz2Afq5--5">
          <mxGeometry relative="1" as="geometry">
            <mxPoint x="650.42" y="355" as="sourcePoint" />
            <mxPoint x="650" y="400" as="targetPoint" />
          </mxGeometry>
        </mxCell>
        <mxCell id="Z4uplLoxIJL1rz2Afq5--12" value="" style="whiteSpace=wrap;html=1;aspect=fixed;fontStyle=1" vertex="1" parent="1">
          <mxGeometry x="610.42" y="270" width="80" height="80" as="geometry" />
        </mxCell>
        <mxCell id="Z4uplLoxIJL1rz2Afq5--13" value="" style="shape=trapezoid;perimeter=trapezoidPerimeter;whiteSpace=wrap;html=1;fixedSize=1;direction=west;fontStyle=1" vertex="1" parent="1">
          <mxGeometry x="91.75" y="211" width="70" height="30" as="geometry" />
        </mxCell>
        <mxCell id="Z4uplLoxIJL1rz2Afq5--14" value="" style="ellipse;whiteSpace=wrap;html=1;aspect=fixed;rotation=15;fontStyle=1" vertex="1" parent="1">
          <mxGeometry x="201.76" y="234.27999999999997" as="geometry" />
        </mxCell>
        <mxCell id="Z4uplLoxIJL1rz2Afq5--15" value="ALU" style="text;html=1;align=center;verticalAlign=middle;whiteSpace=wrap;rounded=0;fontStyle=1" vertex="1" parent="1">
          <mxGeometry x="620.42" y="295" width="60" height="30" as="geometry" />
        </mxCell>
        <mxCell id="Z4uplLoxIJL1rz2Afq5--16" value="MUL1" style="text;html=1;align=center;verticalAlign=middle;whiteSpace=wrap;rounded=0;fontStyle=1" vertex="1" parent="1">
          <mxGeometry x="141.76" y="296.5" width="60" height="30" as="geometry" />
        </mxCell>
        <mxCell id="Z4uplLoxIJL1rz2Afq5--17" value="&lt;div&gt;MUL2&lt;/div&gt;" style="text;html=1;align=center;verticalAlign=middle;whiteSpace=wrap;rounded=0;fontStyle=1" vertex="1" parent="1">
          <mxGeometry x="392" y="295.5" width="60" height="35" as="geometry" />
        </mxCell>
        <mxCell id="Z4uplLoxIJL1rz2Afq5--18" value="" style="endArrow=none;html=1;rounded=0;fontStyle=1;exitX=0.514;exitY=-0.041;exitDx=0;exitDy=0;exitPerimeter=0;" edge="1" parent="1" source="Z4uplLoxIJL1rz2Afq5--24">
          <mxGeometry width="50" height="50" relative="1" as="geometry">
            <mxPoint x="291" y="400" as="sourcePoint" />
            <mxPoint x="171" y="360" as="targetPoint" />
            <Array as="points">
              <mxPoint x="292" y="360" />
            </Array>
          </mxGeometry>
        </mxCell>
        <mxCell id="Z4uplLoxIJL1rz2Afq5--19" value="" style="endArrow=none;html=1;rounded=0;entryX=0.5;entryY=0;entryDx=0;entryDy=0;fontStyle=1" edge="1" parent="1" target="Z4uplLoxIJL1rz2Afq5--13">
          <mxGeometry width="50" height="50" relative="1" as="geometry">
            <mxPoint x="151.75" y="271" as="sourcePoint" />
            <mxPoint x="150.51" y="246" as="targetPoint" />
            <Array as="points">
              <mxPoint x="151.75" y="261" />
              <mxPoint x="151.75" y="251" />
              <mxPoint x="141.75" y="251" />
              <mxPoint x="126.75" y="251" />
            </Array>
          </mxGeometry>
        </mxCell>
        <mxCell id="Z4uplLoxIJL1rz2Afq5--20" value="Reg3" style="text;html=1;align=center;verticalAlign=middle;whiteSpace=wrap;rounded=0;fontStyle=1" vertex="1" parent="1">
          <mxGeometry x="391.42" y="376" width="60" height="18" as="geometry" />
        </mxCell>
        <mxCell id="Z4uplLoxIJL1rz2Afq5--21" style="edgeStyle=orthogonalEdgeStyle;rounded=0;orthogonalLoop=1;jettySize=auto;html=1;endArrow=none;endFill=0;exitX=0.474;exitY=1.076;exitDx=0;exitDy=0;exitPerimeter=0;fontStyle=1" edge="1" parent="1" source="Z4uplLoxIJL1rz2Afq5--22">
          <mxGeometry relative="1" as="geometry">
            <mxPoint x="172" y="413" as="targetPoint" />
            <mxPoint x="172.01" y="477" as="sourcePoint" />
          </mxGeometry>
        </mxCell>
        <mxCell id="Z4uplLoxIJL1rz2Afq5--22" value="Reg1" style="text;html=1;align=center;verticalAlign=middle;whiteSpace=wrap;rounded=0;fontStyle=1" vertex="1" parent="1">
          <mxGeometry x="144.25" y="376.25" width="59" height="17.5" as="geometry" />
        </mxCell>
        <mxCell id="Z4uplLoxIJL1rz2Afq5--23" value="Reg4" style="text;html=1;align=center;verticalAlign=middle;whiteSpace=wrap;rounded=0;fontStyle=1" vertex="1" parent="1">
          <mxGeometry x="620.8399999999999" y="373.75" width="60" height="12.5" as="geometry" />
        </mxCell>
        <mxCell id="Z4uplLoxIJL1rz2Afq5--24" value="Reg2" style="text;html=1;align=center;verticalAlign=middle;whiteSpace=wrap;rounded=0;fontStyle=1" vertex="1" parent="1">
          <mxGeometry x="261.16999999999996" y="375.5" width="60" height="17.5" as="geometry" />
        </mxCell>
        <mxCell id="Z4uplLoxIJL1rz2Afq5--25" value="" style="endArrow=none;html=1;rounded=0;entryX=0;entryY=0;entryDx=0;entryDy=0;fontStyle=1;strokeWidth=2;" edge="1" parent="1">
          <mxGeometry width="50" height="50" relative="1" as="geometry">
            <mxPoint x="690.42" y="291" as="sourcePoint" />
            <mxPoint x="704.42" y="291" as="targetPoint" />
          </mxGeometry>
        </mxCell>
        <mxCell id="Z4uplLoxIJL1rz2Afq5--26" value="&lt;font style=&quot;font-size: 8px;&quot;&gt;selAlu&lt;/font&gt;" style="text;html=1;align=center;verticalAlign=middle;whiteSpace=wrap;rounded=0;fontSize=8;fontStyle=1" vertex="1" parent="1">
          <mxGeometry x="705.2299999999999" y="283.5" width="30" height="15" as="geometry" />
        </mxCell>
        <mxCell id="Z4uplLoxIJL1rz2Afq5--27" value="" style="endArrow=none;html=1;rounded=0;fontStyle=1" edge="1" parent="1">
          <mxGeometry width="50" height="50" relative="1" as="geometry">
            <mxPoint x="290.97" y="413" as="sourcePoint" />
            <mxPoint x="291" y="395" as="targetPoint" />
          </mxGeometry>
        </mxCell>
        <mxCell id="Z4uplLoxIJL1rz2Afq5--28" value="" style="endArrow=none;html=1;rounded=0;fontStyle=1" edge="1" parent="1">
          <mxGeometry width="50" height="50" relative="1" as="geometry">
            <mxPoint x="421.4" y="413" as="sourcePoint" />
            <mxPoint x="421.25000000000006" y="395" as="targetPoint" />
          </mxGeometry>
        </mxCell>
        <mxCell id="Z4uplLoxIJL1rz2Afq5--29" value="" style="endArrow=none;html=1;rounded=0;fontStyle=1" edge="1" parent="1">
          <mxGeometry width="50" height="50" relative="1" as="geometry">
            <mxPoint x="650.81" y="413" as="sourcePoint" />
            <mxPoint x="650.67" y="390" as="targetPoint" />
          </mxGeometry>
        </mxCell>
        <mxCell id="Z4uplLoxIJL1rz2Afq5--30" value="" style="endArrow=none;html=1;rounded=0;strokeWidth=3;startSize=6;fontStyle=1" edge="1" parent="1">
          <mxGeometry width="50" height="50" relative="1" as="geometry">
            <mxPoint x="171" y="413" as="sourcePoint" />
            <mxPoint x="111" y="140" as="targetPoint" />
            <Array as="points">
              <mxPoint x="485" y="413" />
              <mxPoint x="795" y="413" />
              <mxPoint x="795" y="140" />
            </Array>
          </mxGeometry>
        </mxCell>
        <mxCell id="Z4uplLoxIJL1rz2Afq5--31" value="" style="endArrow=none;html=1;rounded=0;exitX=0.5;exitY=0;exitDx=0;exitDy=0;fontStyle=1" edge="1" parent="1">
          <mxGeometry width="50" height="50" relative="1" as="geometry">
            <mxPoint x="452.75" y="211.5" as="sourcePoint" />
            <mxPoint x="453" y="140" as="targetPoint" />
          </mxGeometry>
        </mxCell>
        <mxCell id="Z4uplLoxIJL1rz2Afq5--32" value="" style="endArrow=none;html=1;rounded=0;fontStyle=1" edge="1" parent="1">
          <mxGeometry width="50" height="50" relative="1" as="geometry">
            <mxPoint x="785" y="254.28" as="sourcePoint" />
            <mxPoint x="805" y="234.28" as="targetPoint" />
          </mxGeometry>
        </mxCell>
        <mxCell id="Z4uplLoxIJL1rz2Afq5--33" value="4" style="text;html=1;align=center;verticalAlign=middle;whiteSpace=wrap;rounded=0;fontStyle=1" vertex="1" parent="1">
          <mxGeometry x="795" y="234.28" width="24" height="30" as="geometry" />
        </mxCell>
        <mxCell id="Z4uplLoxIJL1rz2Afq5--34" value="&lt;span style=&quot;font-size: 10px;&quot;&gt;Reg1&lt;/span&gt;" style="text;html=1;align=center;verticalAlign=middle;whiteSpace=wrap;rounded=0;fontStyle=1" vertex="1" parent="1">
          <mxGeometry x="74.25" y="183.28" width="35" height="20" as="geometry" />
        </mxCell>
        <mxCell id="Z4uplLoxIJL1rz2Afq5--35" value="&lt;span style=&quot;font-size: 10px;&quot;&gt;Reg4&lt;/span&gt;" style="text;html=1;align=center;verticalAlign=middle;whiteSpace=wrap;rounded=0;fontStyle=1" vertex="1" parent="1">
          <mxGeometry x="168.76" y="181" width="35" height="20" as="geometry" />
        </mxCell>
        <mxCell id="Z4uplLoxIJL1rz2Afq5--36" value="&lt;span style=&quot;font-size: 10px;&quot;&gt;Reg3&lt;/span&gt;" style="text;html=1;align=center;verticalAlign=middle;whiteSpace=wrap;rounded=0;fontStyle=1" vertex="1" parent="1">
          <mxGeometry x="587.81" y="183.28" width="31" height="20" as="geometry" />
        </mxCell>
        <mxCell id="Z4uplLoxIJL1rz2Afq5--37" value="&lt;span style=&quot;font-size: 10px;&quot;&gt;Reg4&lt;/span&gt;" style="text;html=1;align=center;verticalAlign=middle;whiteSpace=wrap;rounded=0;fontStyle=1" vertex="1" parent="1">
          <mxGeometry x="325" y="181" width="35" height="20" as="geometry" />
        </mxCell>
        <mxCell id="Z4uplLoxIJL1rz2Afq5--38" value="&lt;span style=&quot;font-size: 10px;&quot;&gt;Reg4&lt;/span&gt;" style="text;html=1;align=center;verticalAlign=middle;whiteSpace=wrap;rounded=0;fontStyle=1" vertex="1" parent="1">
          <mxGeometry x="547.81" y="141" width="31" height="20" as="geometry" />
        </mxCell>
        <mxCell id="Z4uplLoxIJL1rz2Afq5--39" value="&lt;font style=&quot;font-size: 8px;&quot;&gt;0&lt;/font&gt;" style="text;html=1;align=center;verticalAlign=middle;whiteSpace=wrap;rounded=0;fontStyle=1" vertex="1" parent="1">
          <mxGeometry x="106.75" y="211" width="10" height="10" as="geometry" />
        </mxCell>
        <mxCell id="Z4uplLoxIJL1rz2Afq5--40" value="&lt;font style=&quot;font-size: 8px;&quot;&gt;1&lt;/font&gt;" style="text;html=1;align=center;verticalAlign=middle;whiteSpace=wrap;rounded=0;fontStyle=1" vertex="1" parent="1">
          <mxGeometry x="121.75" y="211" width="10" height="10" as="geometry" />
        </mxCell>
        <mxCell id="Z4uplLoxIJL1rz2Afq5--41" value="" style="endArrow=none;html=1;rounded=0;entryX=-0.023;entryY=0.511;entryDx=0;entryDy=0;entryPerimeter=0;fontStyle=1" edge="1" parent="1">
          <mxGeometry width="50" height="50" relative="1" as="geometry">
            <mxPoint x="123.17" y="385" as="sourcePoint" />
            <mxPoint x="141.8" y="385.2199999999999" as="targetPoint" />
            <Array as="points">
              <mxPoint x="133.17000000000002" y="385" />
              <mxPoint x="142.17000000000002" y="385" />
            </Array>
          </mxGeometry>
        </mxCell>
        <mxCell id="Z4uplLoxIJL1rz2Afq5--42" value="EN1" style="text;html=1;align=center;verticalAlign=middle;whiteSpace=wrap;rounded=0;fontSize=8;fontStyle=1" vertex="1" parent="1">
          <mxGeometry x="103.17" y="380" width="20" height="10" as="geometry" />
        </mxCell>
        <mxCell id="Z4uplLoxIJL1rz2Afq5--43" value="" style="endArrow=none;html=1;rounded=0;entryX=0;entryY=0.5;entryDx=0;entryDy=0;fontStyle=1" edge="1" parent="1" target="Z4uplLoxIJL1rz2Afq5--8">
          <mxGeometry width="50" height="50" relative="1" as="geometry">
            <mxPoint x="245.17000000000002" y="385" as="sourcePoint" />
            <mxPoint x="266.17" y="384.91999999999996" as="targetPoint" />
          </mxGeometry>
        </mxCell>
        <mxCell id="Z4uplLoxIJL1rz2Afq5--44" value="EN2" style="text;html=1;align=center;verticalAlign=middle;whiteSpace=wrap;rounded=0;fontSize=8;fontStyle=1" vertex="1" parent="1">
          <mxGeometry x="226.17000000000002" y="380" width="20" height="10" as="geometry" />
        </mxCell>
        <mxCell id="Z4uplLoxIJL1rz2Afq5--45" value="" style="endArrow=none;html=1;rounded=0;fontStyle=1" edge="1" parent="1">
          <mxGeometry width="50" height="50" relative="1" as="geometry">
            <mxPoint x="370.92" y="385.38" as="sourcePoint" />
            <mxPoint x="391.92" y="385.29999999999995" as="targetPoint" />
          </mxGeometry>
        </mxCell>
        <mxCell id="Z4uplLoxIJL1rz2Afq5--46" value="EN3" style="text;html=1;align=center;verticalAlign=middle;whiteSpace=wrap;rounded=0;fontSize=8;fontStyle=1" vertex="1" parent="1">
          <mxGeometry x="351.42" y="380.5" width="20" height="10" as="geometry" />
        </mxCell>
        <mxCell id="Z4uplLoxIJL1rz2Afq5--47" value="" style="endArrow=none;html=1;rounded=0;fontStyle=1" edge="1" parent="1">
          <mxGeometry width="50" height="50" relative="1" as="geometry">
            <mxPoint x="599.8399999999999" y="380" as="sourcePoint" />
            <mxPoint x="620.8399999999999" y="379.91999999999996" as="targetPoint" />
          </mxGeometry>
        </mxCell>
        <mxCell id="Z4uplLoxIJL1rz2Afq5--48" value="EN4" style="text;html=1;align=center;verticalAlign=middle;whiteSpace=wrap;rounded=0;fontSize=8;fontStyle=1" vertex="1" parent="1">
          <mxGeometry x="579.8399999999999" y="375" width="20" height="10" as="geometry" />
        </mxCell>
        <mxCell id="Z4uplLoxIJL1rz2Afq5--49" value="selCtrl0" style="text;html=1;align=center;verticalAlign=middle;whiteSpace=wrap;rounded=0;fontSize=8;fontStyle=1" vertex="1" parent="1">
          <mxGeometry x="55" y="216.36" width="30" height="10" as="geometry" />
        </mxCell>
        <mxCell id="Z4uplLoxIJL1rz2Afq5--50" value="" style="ellipse;whiteSpace=wrap;html=1;aspect=fixed;fillColor=#000000;fontStyle=1" vertex="1" parent="1">
          <mxGeometry x="171" y="359" width="3" height="3" as="geometry" />
        </mxCell>
        <mxCell id="Z4uplLoxIJL1rz2Afq5--51" value="2" style="text;html=1;align=center;verticalAlign=middle;whiteSpace=wrap;rounded=0;fontSize=8;fontStyle=1" vertex="1" parent="1">
          <mxGeometry x="137.25" y="212" width="8.5" height="10" as="geometry" />
        </mxCell>
        <mxCell id="Z4uplLoxIJL1rz2Afq5--52" value="selCtrl1" style="text;html=1;align=center;verticalAlign=middle;whiteSpace=wrap;rounded=0;fontSize=8;fontStyle=1" vertex="1" parent="1">
          <mxGeometry x="60" y="226.36" width="20" height="10" as="geometry" />
        </mxCell>
        <mxCell id="Z4uplLoxIJL1rz2Afq5--53" style="edgeStyle=orthogonalEdgeStyle;rounded=0;orthogonalLoop=1;jettySize=auto;html=1;exitX=0.5;exitY=1;exitDx=0;exitDy=0;entryX=0.498;entryY=0.073;entryDx=0;entryDy=0;endArrow=none;endFill=0;entryPerimeter=0;fontStyle=1" edge="1" parent="1">
          <mxGeometry relative="1" as="geometry">
            <mxPoint x="126.6" y="190.91" as="sourcePoint" />
            <mxPoint x="126.56000000000003" y="211.00000000000014" as="targetPoint" />
          </mxGeometry>
        </mxCell>
        <mxCell id="Z4uplLoxIJL1rz2Afq5--54" value="E&lt;sub&gt;i&lt;/sub&gt;" style="text;html=1;align=center;verticalAlign=middle;whiteSpace=wrap;rounded=0;fontStyle=1" vertex="1" parent="1">
          <mxGeometry x="109.25" y="171" width="35" height="20" as="geometry" />
        </mxCell>
        <mxCell id="Z4uplLoxIJL1rz2Afq5--55" style="edgeStyle=orthogonalEdgeStyle;rounded=0;orthogonalLoop=1;jettySize=auto;html=1;endArrow=none;endFill=0;fontStyle=1" edge="1" parent="1">
          <mxGeometry relative="1" as="geometry">
            <mxPoint x="145" y="211" as="targetPoint" />
            <Array as="points">
              <mxPoint x="141.76" y="210.99" />
            </Array>
            <mxPoint x="141.76" y="179.99" as="sourcePoint" />
          </mxGeometry>
        </mxCell>
        <mxCell id="Z4uplLoxIJL1rz2Afq5--56" value="B&lt;sub&gt;i&lt;/sub&gt;" style="text;html=1;align=center;verticalAlign=middle;whiteSpace=wrap;rounded=0;fontStyle=1" vertex="1" parent="1">
          <mxGeometry x="135" y="167" width="13" height="10" as="geometry" />
        </mxCell>
        <mxCell id="Z4uplLoxIJL1rz2Afq5--57" style="edgeStyle=orthogonalEdgeStyle;rounded=0;orthogonalLoop=1;jettySize=auto;html=1;exitX=0;exitY=0.25;exitDx=0;exitDy=0;endArrow=none;endFill=0;fontStyle=1;" edge="1" parent="1">
          <mxGeometry relative="1" as="geometry">
            <mxPoint x="255" y="220" as="targetPoint" />
            <mxPoint x="245.755" y="220.6875" as="sourcePoint" />
          </mxGeometry>
        </mxCell>
        <mxCell id="Z4uplLoxIJL1rz2Afq5--58" value="" style="shape=trapezoid;perimeter=trapezoidPerimeter;whiteSpace=wrap;html=1;fixedSize=1;direction=west;fontStyle=1" vertex="1" parent="1">
          <mxGeometry x="181.76" y="211" width="70" height="30" as="geometry" />
        </mxCell>
        <mxCell id="Z4uplLoxIJL1rz2Afq5--59" value="&lt;font style=&quot;font-size: 8px;&quot;&gt;0&lt;/font&gt;" style="text;html=1;align=center;verticalAlign=middle;whiteSpace=wrap;rounded=0;fontStyle=1" vertex="1" parent="1">
          <mxGeometry x="191.76" y="211" width="20" height="10" as="geometry" />
        </mxCell>
        <mxCell id="Z4uplLoxIJL1rz2Afq5--60" value="&lt;font style=&quot;font-size: 8px;&quot;&gt;1&lt;/font&gt;" style="text;html=1;align=center;verticalAlign=middle;whiteSpace=wrap;rounded=0;fontStyle=1" vertex="1" parent="1">
          <mxGeometry x="221.26" y="211" width="20" height="10" as="geometry" />
        </mxCell>
        <mxCell id="Z4uplLoxIJL1rz2Afq5--61" value="selCtrl0" style="text;html=1;align=center;verticalAlign=middle;whiteSpace=wrap;rounded=0;fontSize=8;fontStyle=1" vertex="1" parent="1">
          <mxGeometry x="261.16999999999996" y="215.36" width="26.76" height="10" as="geometry" />
        </mxCell>
        <mxCell id="Z4uplLoxIJL1rz2Afq5--62" style="edgeStyle=orthogonalEdgeStyle;rounded=0;orthogonalLoop=1;jettySize=auto;html=1;exitX=0.5;exitY=0;exitDx=0;exitDy=0;entryX=0.75;entryY=0;entryDx=0;entryDy=0;endArrow=none;endFill=0;fontStyle=1" edge="1" parent="1" source="Z4uplLoxIJL1rz2Afq5--58" target="Z4uplLoxIJL1rz2Afq5--9">
          <mxGeometry relative="1" as="geometry">
            <Array as="points">
              <mxPoint x="216.75" y="251" />
              <mxPoint x="191.75" y="251" />
            </Array>
          </mxGeometry>
        </mxCell>
        <mxCell id="Z4uplLoxIJL1rz2Afq5--63" style="edgeStyle=orthogonalEdgeStyle;rounded=0;orthogonalLoop=1;jettySize=auto;html=1;exitX=0.5;exitY=1;exitDx=0;exitDy=0;endArrow=none;endFill=0;entryX=0.5;entryY=0;entryDx=0;entryDy=0;fontStyle=1" edge="1" parent="1" source="Z4uplLoxIJL1rz2Afq5--64" target="Z4uplLoxIJL1rz2Afq5--60">
          <mxGeometry relative="1" as="geometry">
            <mxPoint x="201.75" y="211" as="targetPoint" />
          </mxGeometry>
        </mxCell>
        <mxCell id="Z4uplLoxIJL1rz2Afq5--64" value="F&lt;sub&gt;i&lt;/sub&gt;" style="text;html=1;align=center;verticalAlign=middle;whiteSpace=wrap;rounded=0;fontStyle=1" vertex="1" parent="1">
          <mxGeometry x="213.76" y="172" width="35" height="20" as="geometry" />
        </mxCell>
        <mxCell id="Z4uplLoxIJL1rz2Afq5--65" style="edgeStyle=orthogonalEdgeStyle;rounded=0;orthogonalLoop=1;jettySize=auto;html=1;exitX=0.5;exitY=0;exitDx=0;exitDy=0;endArrow=none;endFill=0;fontStyle=1" edge="1" parent="1" source="Z4uplLoxIJL1rz2Afq5--59">
          <mxGeometry relative="1" as="geometry">
            <mxPoint x="195" y="140" as="targetPoint" />
            <mxPoint x="221.45" y="290" as="sourcePoint" />
            <Array as="points">
              <mxPoint x="202" y="140" />
              <mxPoint x="195" y="140" />
            </Array>
          </mxGeometry>
        </mxCell>
        <mxCell id="Z4uplLoxIJL1rz2Afq5--66" value="" style="endArrow=none;html=1;rounded=0;exitX=1.047;exitY=0.485;exitDx=0;exitDy=0;fontStyle=1;exitPerimeter=0;" edge="1" parent="1" source="Z4uplLoxIJL1rz2Afq5--49">
          <mxGeometry width="50" height="50" relative="1" as="geometry">
            <mxPoint x="58.75" y="221.33" as="sourcePoint" />
            <mxPoint x="98.75" y="221.33" as="targetPoint" />
          </mxGeometry>
        </mxCell>
        <mxCell id="Z4uplLoxIJL1rz2Afq5--67" style="edgeStyle=orthogonalEdgeStyle;rounded=0;orthogonalLoop=1;jettySize=auto;html=1;entryX=0.78;entryY=0.293;entryDx=0;entryDy=0;entryPerimeter=0;endArrow=none;endFill=0;fontStyle=1" edge="1" parent="1">
          <mxGeometry relative="1" as="geometry">
            <mxPoint x="86" y="231.4027777777776" as="sourcePoint" />
            <mxPoint x="105.94999999999999" y="231.57000000000016" as="targetPoint" />
          </mxGeometry>
        </mxCell>
        <mxCell id="Z4uplLoxIJL1rz2Afq5--68" style="edgeStyle=orthogonalEdgeStyle;rounded=0;orthogonalLoop=1;jettySize=auto;html=1;entryX=0.25;entryY=0;entryDx=0;entryDy=0;endArrow=none;endFill=0;fontStyle=1" edge="1" parent="1" source="Z4uplLoxIJL1rz2Afq5--69" target="Z4uplLoxIJL1rz2Afq5--10">
          <mxGeometry relative="1" as="geometry">
            <Array as="points">
              <mxPoint x="377" y="251.5" />
              <mxPoint x="402" y="251.5" />
            </Array>
          </mxGeometry>
        </mxCell>
        <mxCell id="Z4uplLoxIJL1rz2Afq5--69" value="" style="shape=trapezoid;perimeter=trapezoidPerimeter;whiteSpace=wrap;html=1;fixedSize=1;direction=west;fontStyle=1" vertex="1" parent="1">
          <mxGeometry x="342" y="211.5" width="69" height="30" as="geometry" />
        </mxCell>
        <mxCell id="Z4uplLoxIJL1rz2Afq5--70" style="edgeStyle=orthogonalEdgeStyle;rounded=0;orthogonalLoop=1;jettySize=auto;html=1;exitX=0.5;exitY=0;exitDx=0;exitDy=0;entryX=0.75;entryY=0;entryDx=0;entryDy=0;endArrow=none;endFill=0;fontStyle=1" edge="1" parent="1" source="Z4uplLoxIJL1rz2Afq5--71" target="Z4uplLoxIJL1rz2Afq5--10">
          <mxGeometry relative="1" as="geometry">
            <Array as="points">
              <mxPoint x="467" y="251.5" />
              <mxPoint x="442" y="251.5" />
            </Array>
          </mxGeometry>
        </mxCell>
        <mxCell id="Z4uplLoxIJL1rz2Afq5--71" value="" style="shape=trapezoid;perimeter=trapezoidPerimeter;whiteSpace=wrap;html=1;fixedSize=1;direction=west;fontStyle=1" vertex="1" parent="1">
          <mxGeometry x="432" y="211.5" width="70" height="31" as="geometry" />
        </mxCell>
        <mxCell id="Z4uplLoxIJL1rz2Afq5--72" value="&lt;font style=&quot;font-size: 8px;&quot;&gt;0&lt;/font&gt;" style="text;html=1;align=center;verticalAlign=middle;whiteSpace=wrap;rounded=0;fontStyle=1" vertex="1" parent="1">
          <mxGeometry x="351.75" y="212.5" width="20" height="10" as="geometry" />
        </mxCell>
        <mxCell id="Z4uplLoxIJL1rz2Afq5--73" style="edgeStyle=orthogonalEdgeStyle;rounded=0;orthogonalLoop=1;jettySize=auto;html=1;endArrow=none;endFill=0;exitX=0.499;exitY=-0.126;exitDx=0;exitDy=0;exitPerimeter=0;fontStyle=1" edge="1" parent="1">
          <mxGeometry relative="1" as="geometry">
            <mxPoint x="365" y="140" as="targetPoint" />
            <mxPoint x="357.0000000000001" y="211.47" as="sourcePoint" />
            <Array as="points">
              <mxPoint x="360.49" y="211.1" />
            </Array>
          </mxGeometry>
        </mxCell>
        <mxCell id="Z4uplLoxIJL1rz2Afq5--74" value="&lt;font style=&quot;font-size: 8px;&quot;&gt;1&lt;/font&gt;" style="text;html=1;align=center;verticalAlign=middle;whiteSpace=wrap;rounded=0;fontStyle=1" vertex="1" parent="1">
          <mxGeometry x="382" y="212.5" width="20" height="10" as="geometry" />
        </mxCell>
        <mxCell id="Z4uplLoxIJL1rz2Afq5--75" value="&lt;font style=&quot;font-size: 8px;&quot;&gt;0&lt;/font&gt;" style="text;html=1;align=center;verticalAlign=middle;whiteSpace=wrap;rounded=0;fontStyle=1" vertex="1" parent="1">
          <mxGeometry x="442" y="212.5" width="20" height="10" as="geometry" />
        </mxCell>
        <mxCell id="Z4uplLoxIJL1rz2Afq5--76" value="&lt;font style=&quot;font-size: 8px;&quot;&gt;1&lt;/font&gt;" style="text;html=1;align=center;verticalAlign=middle;whiteSpace=wrap;rounded=0;fontStyle=1" vertex="1" parent="1">
          <mxGeometry x="471.75" y="212.5" width="20" height="10" as="geometry" />
        </mxCell>
        <mxCell id="Z4uplLoxIJL1rz2Afq5--77" style="edgeStyle=orthogonalEdgeStyle;rounded=0;orthogonalLoop=1;jettySize=auto;html=1;entryX=0.5;entryY=0;entryDx=0;entryDy=0;endArrow=none;endFill=0;fontStyle=1" edge="1" parent="1">
          <mxGeometry relative="1" as="geometry">
            <mxPoint x="391.67381443298973" y="191" as="sourcePoint" />
            <mxPoint x="391.63" y="211" as="targetPoint" />
          </mxGeometry>
        </mxCell>
        <mxCell id="Z4uplLoxIJL1rz2Afq5--78" value="A&lt;sub&gt;i&lt;/sub&gt;" style="text;html=1;align=center;verticalAlign=middle;whiteSpace=wrap;rounded=0;fontStyle=1" vertex="1" parent="1">
          <mxGeometry x="382" y="171.5" width="17.75" height="20" as="geometry" />
        </mxCell>
        <mxCell id="Z4uplLoxIJL1rz2Afq5--79" style="edgeStyle=orthogonalEdgeStyle;rounded=0;orthogonalLoop=1;jettySize=auto;html=1;entryX=0.5;entryY=0;entryDx=0;entryDy=0;endArrow=none;endFill=0;fontStyle=1" edge="1" parent="1">
          <mxGeometry relative="1" as="geometry">
            <mxPoint x="481.50699300699296" y="191.5" as="sourcePoint" />
            <mxPoint x="481.5" y="211.5" as="targetPoint" />
            <Array as="points">
              <mxPoint x="481.5" y="211.5" />
            </Array>
          </mxGeometry>
        </mxCell>
        <mxCell id="Z4uplLoxIJL1rz2Afq5--80" value="B&lt;sub&gt;i&lt;/sub&gt;" style="text;html=1;align=center;verticalAlign=middle;whiteSpace=wrap;rounded=0;fontStyle=1" vertex="1" parent="1">
          <mxGeometry x="471.75" y="172.5" width="17.25" height="20" as="geometry" />
        </mxCell>
        <mxCell id="Z4uplLoxIJL1rz2Afq5--81" value="&lt;span style=&quot;font-size: 10px;&quot;&gt;Reg3&lt;/span&gt;" style="text;html=1;align=center;verticalAlign=middle;whiteSpace=wrap;rounded=0;fontStyle=1" vertex="1" parent="1">
          <mxGeometry x="417" y="181" width="35" height="20" as="geometry" />
        </mxCell>
        <mxCell id="Z4uplLoxIJL1rz2Afq5--82" style="edgeStyle=orthogonalEdgeStyle;rounded=0;orthogonalLoop=1;jettySize=auto;html=1;entryX=0.75;entryY=0;entryDx=0;entryDy=0;endArrow=none;endFill=0;exitX=0.499;exitY=-0.028;exitDx=0;exitDy=0;exitPerimeter=0;fontStyle=1" edge="1" parent="1" source="Z4uplLoxIJL1rz2Afq5--107" target="Z4uplLoxIJL1rz2Afq5--12">
          <mxGeometry relative="1" as="geometry">
            <Array as="points">
              <mxPoint x="700.42" y="231" />
              <mxPoint x="700.42" y="251" />
              <mxPoint x="670.42" y="251" />
            </Array>
            <mxPoint x="700.42" y="231" as="sourcePoint" />
          </mxGeometry>
        </mxCell>
        <mxCell id="Z4uplLoxIJL1rz2Afq5--83" value="" style="shape=trapezoid;perimeter=trapezoidPerimeter;whiteSpace=wrap;html=1;fixedSize=1;direction=west;fontStyle=1" vertex="1" parent="1">
          <mxGeometry x="538.81" y="210.5" width="70" height="31" as="geometry" />
        </mxCell>
        <mxCell id="Z4uplLoxIJL1rz2Afq5--84" value="&lt;font style=&quot;font-size: 8px;&quot;&gt;1&lt;/font&gt;" style="text;html=1;align=center;verticalAlign=middle;whiteSpace=wrap;rounded=0;fontStyle=1" vertex="1" parent="1">
          <mxGeometry x="558.81" y="212" width="20" height="10" as="geometry" />
        </mxCell>
        <mxCell id="Z4uplLoxIJL1rz2Afq5--85" style="edgeStyle=orthogonalEdgeStyle;rounded=0;orthogonalLoop=1;jettySize=auto;html=1;endArrow=none;endFill=0;entryX=0.5;entryY=1;entryDx=0;entryDy=0;fontStyle=1;exitX=0.719;exitY=0.981;exitDx=0;exitDy=0;exitPerimeter=0;" edge="1" parent="1" source="Z4uplLoxIJL1rz2Afq5--83" target="Z4uplLoxIJL1rz2Afq5--95">
          <mxGeometry relative="1" as="geometry">
            <mxPoint x="558.81" y="200" as="targetPoint" />
            <mxPoint x="558.8132154340835" y="211" as="sourcePoint" />
          </mxGeometry>
        </mxCell>
        <mxCell id="Z4uplLoxIJL1rz2Afq5--86" value="&lt;font style=&quot;font-size: 8px;&quot;&gt;0&lt;/font&gt;" style="text;html=1;align=center;verticalAlign=middle;whiteSpace=wrap;rounded=0;fontStyle=1" vertex="1" parent="1">
          <mxGeometry x="548.81" y="212" width="20" height="10" as="geometry" />
        </mxCell>
        <mxCell id="Z4uplLoxIJL1rz2Afq5--87" value="&lt;font style=&quot;font-size: 8px;&quot;&gt;3&lt;/font&gt;" style="text;html=1;align=center;verticalAlign=middle;whiteSpace=wrap;rounded=0;fontStyle=1" vertex="1" parent="1">
          <mxGeometry x="578.81" y="212" width="20" height="10" as="geometry" />
        </mxCell>
        <mxCell id="Z4uplLoxIJL1rz2Afq5--88" value="2" style="text;html=1;align=center;verticalAlign=middle;whiteSpace=wrap;rounded=0;fontSize=8;fontStyle=1" vertex="1" parent="1">
          <mxGeometry x="567.81" y="213" width="20" height="10" as="geometry" />
        </mxCell>
        <mxCell id="Z4uplLoxIJL1rz2Afq5--89" value="selCtrl1" style="text;html=1;align=center;verticalAlign=middle;whiteSpace=wrap;rounded=0;fontSize=8;fontStyle=1" vertex="1" parent="1">
          <mxGeometry x="316" y="216.36" width="20" height="10" as="geometry" />
        </mxCell>
        <mxCell id="Z4uplLoxIJL1rz2Afq5--90" value="" style="endArrow=none;html=1;rounded=0;entryX=0.906;entryY=0.667;entryDx=0;entryDy=0;entryPerimeter=0;fontStyle=1" edge="1" parent="1" target="Z4uplLoxIJL1rz2Afq5--69">
          <mxGeometry width="50" height="50" relative="1" as="geometry">
            <mxPoint x="342" y="221.5" as="sourcePoint" />
            <mxPoint x="332" y="241.5" as="targetPoint" />
          </mxGeometry>
        </mxCell>
        <mxCell id="Z4uplLoxIJL1rz2Afq5--91" value="&lt;font style=&quot;font-size: 8px;&quot;&gt;selCtrl1&lt;/font&gt;" style="text;html=1;align=center;verticalAlign=middle;whiteSpace=wrap;rounded=0;fontSize=6;fontStyle=1" vertex="1" parent="1">
          <mxGeometry x="506" y="216.36" width="27" height="10" as="geometry" />
        </mxCell>
        <mxCell id="Z4uplLoxIJL1rz2Afq5--92" value="" style="endArrow=none;html=1;rounded=0;entryX=0.906;entryY=0.667;entryDx=0;entryDy=0;entryPerimeter=0;exitX=0.095;exitY=0.679;exitDx=0;exitDy=0;exitPerimeter=0;fontStyle=1" edge="1" parent="1" source="Z4uplLoxIJL1rz2Afq5--71">
          <mxGeometry width="50" height="50" relative="1" as="geometry">
            <mxPoint x="496" y="221.46000000000004" as="sourcePoint" />
            <mxPoint x="502" y="221.46000000000004" as="targetPoint" />
          </mxGeometry>
        </mxCell>
        <mxCell id="Z4uplLoxIJL1rz2Afq5--93" style="edgeStyle=orthogonalEdgeStyle;rounded=0;orthogonalLoop=1;jettySize=auto;html=1;exitX=0.5;exitY=1;exitDx=0;exitDy=0;endArrow=none;endFill=0;fontStyle=1" edge="1" parent="1" source="Z4uplLoxIJL1rz2Afq5--94">
          <mxGeometry relative="1" as="geometry">
            <mxPoint x="568.81" y="211" as="targetPoint" />
          </mxGeometry>
        </mxCell>
        <mxCell id="Z4uplLoxIJL1rz2Afq5--94" value="C&lt;sub&gt;i&lt;/sub&gt;" style="text;html=1;align=center;verticalAlign=middle;whiteSpace=wrap;rounded=0;fontStyle=1" vertex="1" parent="1">
          <mxGeometry x="559" y="161" width="19.62" height="20" as="geometry" />
        </mxCell>
        <mxCell id="Z4uplLoxIJL1rz2Afq5--95" value="A&lt;sub&gt;i&lt;/sub&gt;" style="text;html=1;align=center;verticalAlign=middle;whiteSpace=wrap;rounded=0;fontStyle=1" vertex="1" parent="1">
          <mxGeometry x="548.81" y="177" width="19.62" height="20" as="geometry" />
        </mxCell>
        <mxCell id="Z4uplLoxIJL1rz2Afq5--96" value="" style="endArrow=none;html=1;rounded=0;entryX=0.492;entryY=0.997;entryDx=0;entryDy=0;fontStyle=1;exitX=0.5;exitY=0;exitDx=0;exitDy=0;entryPerimeter=0;" edge="1" parent="1" source="Z4uplLoxIJL1rz2Afq5--20" target="Z4uplLoxIJL1rz2Afq5--10">
          <mxGeometry width="50" height="50" relative="1" as="geometry">
            <mxPoint x="421.75" y="451.5" as="sourcePoint" />
            <mxPoint x="471.75" y="401.5" as="targetPoint" />
          </mxGeometry>
        </mxCell>
        <mxCell id="Z4uplLoxIJL1rz2Afq5--97" value="" style="endArrow=none;html=1;rounded=0;fontStyle=1;exitX=0.5;exitY=0;exitDx=0;exitDy=0;" edge="1" parent="1" source="Z4uplLoxIJL1rz2Afq5--3">
          <mxGeometry width="50" height="50" relative="1" as="geometry">
            <mxPoint x="172" y="400" as="sourcePoint" />
            <mxPoint x="172" y="351" as="targetPoint" />
          </mxGeometry>
        </mxCell>
        <mxCell id="Z4uplLoxIJL1rz2Afq5--98" value="selCtrl0" style="text;html=1;align=center;verticalAlign=middle;whiteSpace=wrap;rounded=0;fontSize=8;fontStyle=1" vertex="1" parent="1">
          <mxGeometry x="613.5499999999998" y="215.36" width="24.58" height="10" as="geometry" />
        </mxCell>
        <mxCell id="Z4uplLoxIJL1rz2Afq5--99" value="selCtrl1" style="text;html=1;align=center;verticalAlign=middle;whiteSpace=wrap;rounded=0;fontSize=8;fontStyle=1" vertex="1" parent="1">
          <mxGeometry x="614.32" y="225.36" width="23.81" height="10" as="geometry" />
        </mxCell>
        <mxCell id="Z4uplLoxIJL1rz2Afq5--100" value="" style="endArrow=none;html=1;rounded=0;entryX=0.911;entryY=0.68;entryDx=0;entryDy=0;entryPerimeter=0;fontStyle=1" edge="1" parent="1">
          <mxGeometry width="50" height="50" relative="1" as="geometry">
            <mxPoint x="601.81" y="221" as="sourcePoint" />
            <mxPoint x="609.04" y="220.91999999999996" as="targetPoint" />
          </mxGeometry>
        </mxCell>
        <mxCell id="Z4uplLoxIJL1rz2Afq5--101" value="" style="endArrow=none;html=1;rounded=0;entryX=1;entryY=0.25;entryDx=0;entryDy=0;exitX=1;exitY=0.5;exitDx=0;exitDy=0;fontStyle=1" edge="1" parent="1">
          <mxGeometry width="50" height="50" relative="1" as="geometry">
            <mxPoint x="595.81" y="231.32000000000002" as="sourcePoint" />
            <mxPoint x="608.935" y="231.34375" as="targetPoint" />
          </mxGeometry>
        </mxCell>
        <mxCell id="Z4uplLoxIJL1rz2Afq5--102" style="edgeStyle=orthogonalEdgeStyle;rounded=0;orthogonalLoop=1;jettySize=auto;html=1;entryX=0.25;entryY=0;entryDx=0;entryDy=0;endArrow=none;endFill=0;fontStyle=1" edge="1" parent="1">
          <mxGeometry relative="1" as="geometry">
            <Array as="points">
              <mxPoint x="575" y="251" />
              <mxPoint x="630" y="251" />
              <mxPoint x="630" y="270" />
            </Array>
            <mxPoint x="575" y="242" as="sourcePoint" />
            <mxPoint x="616" y="270" as="targetPoint" />
          </mxGeometry>
        </mxCell>
        <mxCell id="Z4uplLoxIJL1rz2Afq5--103" value="" style="endArrow=none;html=1;rounded=0;exitX=0.5;exitY=0;exitDx=0;exitDy=0;fontStyle=1" edge="1" parent="1">
          <mxGeometry width="50" height="50" relative="1" as="geometry">
            <mxPoint x="578.81" y="211" as="sourcePoint" />
            <mxPoint x="579" y="140" as="targetPoint" />
          </mxGeometry>
        </mxCell>
        <mxCell id="Z4uplLoxIJL1rz2Afq5--104" value="" style="endArrow=none;html=1;rounded=0;exitX=0.5;exitY=0;exitDx=0;exitDy=0;fontStyle=1" edge="1" parent="1">
          <mxGeometry width="50" height="50" relative="1" as="geometry">
            <mxPoint x="589" y="211" as="sourcePoint" />
            <mxPoint x="589" y="140" as="targetPoint" />
          </mxGeometry>
        </mxCell>
        <mxCell id="Z4uplLoxIJL1rz2Afq5--105" value="&lt;span style=&quot;font-size: 10px;&quot;&gt;Reg1&lt;/span&gt;" style="text;html=1;align=center;verticalAlign=middle;whiteSpace=wrap;rounded=0;fontStyle=1" vertex="1" parent="1">
          <mxGeometry x="718.9799999999999" y="170.99999999999997" width="31" height="20" as="geometry" />
        </mxCell>
        <mxCell id="Z4uplLoxIJL1rz2Afq5--106" style="edgeStyle=orthogonalEdgeStyle;rounded=0;orthogonalLoop=1;jettySize=auto;html=1;exitX=0.5;exitY=0;exitDx=0;exitDy=0;endArrow=none;endFill=0;fontStyle=1" edge="1" parent="1">
          <mxGeometry relative="1" as="geometry">
            <mxPoint x="125" y="140" as="targetPoint" />
            <mxPoint x="111.75" y="210.5" as="sourcePoint" />
            <Array as="points">
              <mxPoint x="112" y="140" />
              <mxPoint x="125" y="140" />
            </Array>
          </mxGeometry>
        </mxCell>
        <mxCell id="Z4uplLoxIJL1rz2Afq5--107" value="" style="shape=trapezoid;perimeter=trapezoidPerimeter;whiteSpace=wrap;html=1;fixedSize=1;direction=west;fontStyle=1" vertex="1" parent="1">
          <mxGeometry x="665.4799999999999" y="208.64" width="70" height="31" as="geometry" />
        </mxCell>
        <mxCell id="Z4uplLoxIJL1rz2Afq5--108" value="&lt;font style=&quot;font-size: 8px;&quot;&gt;0&lt;/font&gt;" style="text;html=1;align=center;verticalAlign=middle;whiteSpace=wrap;rounded=0;fontStyle=1" vertex="1" parent="1">
          <mxGeometry x="675.4799999999999" y="208.64" width="20" height="10" as="geometry" />
        </mxCell>
        <mxCell id="Z4uplLoxIJL1rz2Afq5--109" value="&lt;span style=&quot;font-size: 8px;&quot;&gt;2&lt;/span&gt;" style="text;html=1;align=center;verticalAlign=middle;whiteSpace=wrap;rounded=0;fontStyle=1" vertex="1" parent="1">
          <mxGeometry x="705.2299999999999" y="208.64" width="20" height="10" as="geometry" />
        </mxCell>
        <mxCell id="Z4uplLoxIJL1rz2Afq5--110" value="" style="endArrow=none;html=1;rounded=0;exitX=0.5;exitY=0;exitDx=0;exitDy=0;fontStyle=1" edge="1" parent="1">
          <mxGeometry width="50" height="50" relative="1" as="geometry">
            <mxPoint x="715" y="208.27999999999997" as="sourcePoint" />
            <mxPoint x="715" y="140" as="targetPoint" />
          </mxGeometry>
        </mxCell>
        <mxCell id="Z4uplLoxIJL1rz2Afq5--111" style="edgeStyle=orthogonalEdgeStyle;rounded=0;orthogonalLoop=1;jettySize=auto;html=1;endArrow=none;endFill=0;entryX=0.49;entryY=0.1;entryDx=0;entryDy=0;entryPerimeter=0;fontStyle=1" edge="1" parent="1">
          <mxGeometry relative="1" as="geometry">
            <mxPoint x="700.3599999999998" y="208.64" as="targetPoint" />
            <mxPoint x="700.43" y="190" as="sourcePoint" />
            <Array as="points">
              <mxPoint x="700.5599999999997" y="198.64" />
              <mxPoint x="700.5599999999997" y="198.64" />
            </Array>
          </mxGeometry>
        </mxCell>
        <mxCell id="Z4uplLoxIJL1rz2Afq5--112" value="D&lt;sub&gt;i&lt;/sub&gt;" style="text;html=1;align=center;verticalAlign=middle;whiteSpace=wrap;rounded=0;fontStyle=1" vertex="1" parent="1">
          <mxGeometry x="690.67" y="170.99999999999997" width="19.62" height="20" as="geometry" />
        </mxCell>
        <mxCell id="Z4uplLoxIJL1rz2Afq5--113" value="selCtrl1" style="text;html=1;align=center;verticalAlign=middle;whiteSpace=wrap;rounded=0;fontSize=8;fontStyle=1" vertex="1" parent="1">
          <mxGeometry x="744" y="226.36" width="20" height="10" as="geometry" />
        </mxCell>
        <mxCell id="Z4uplLoxIJL1rz2Afq5--114" value="&lt;span style=&quot;font-size: 10px;&quot;&gt;Reg2&lt;/span&gt;" style="text;html=1;align=center;verticalAlign=middle;whiteSpace=wrap;rounded=0;fontStyle=1" vertex="1" parent="1">
          <mxGeometry x="655" y="171.5" width="25.42" height="20" as="geometry" />
        </mxCell>
        <mxCell id="Z4uplLoxIJL1rz2Afq5--115" value="" style="endArrow=none;html=1;rounded=0;fontStyle=1" edge="1" parent="1">
          <mxGeometry width="50" height="50" relative="1" as="geometry">
            <mxPoint x="721" y="231.44" as="sourcePoint" />
            <mxPoint x="735" y="231.28" as="targetPoint" />
          </mxGeometry>
        </mxCell>
        <mxCell id="Z4uplLoxIJL1rz2Afq5--116" value="&lt;div style=&quot;text-align: justify;&quot;&gt;AtenÃ§Ã£o que o VHDL para ficar igual a este datapath ainda falta:&lt;/div&gt;&lt;div style=&quot;text-align: justify;&quot;&gt;&lt;span style=&quot;background-color: initial;&quot;&gt;- Trocar no datapath as entradas da ALU;&lt;/span&gt;&lt;/div&gt;&lt;div style=&quot;text-align: justify;&quot;&gt;- Trocar na ALU para se ter as operaÃ§Ãµes:&lt;/div&gt;&lt;div style=&quot;text-align: justify;&quot;&gt;&amp;nbsp; &amp;nbsp; &amp;nbsp; &amp;nbsp; &amp;nbsp; &amp;nbsp; &amp;nbsp;in1 - in2;&lt;/div&gt;&lt;div style=&quot;text-align: justify;&quot;&gt;&amp;nbsp; &amp;nbsp; &amp;nbsp; &amp;nbsp; &amp;nbsp; &amp;nbsp; &amp;nbsp;(in2(31)&amp;amp;in2(31)&amp;amp;in2(31 downto 2)) + in1&lt;/div&gt;" style="text;html=1;align=center;verticalAlign=middle;whiteSpace=wrap;rounded=0;fontSize=16;" vertex="1" parent="1">
          <mxGeometry x="66.62" y="600" width="725.25" height="130" as="geometry" />
        </mxCell>
        <mxCell id="Z4uplLoxIJL1rz2Afq5--117" value="" style="endArrow=none;html=1;rounded=0;fontStyle=1;strokeWidth=1;" edge="1" parent="1">
          <mxGeometry width="50" height="50" relative="1" as="geometry">
            <mxPoint x="695.48" y="293.19" as="sourcePoint" />
            <mxPoint x="700" y="288.81" as="targetPoint" />
          </mxGeometry>
        </mxCell>
        <mxCell id="Z4uplLoxIJL1rz2Afq5--118" value="&lt;font style=&quot;font-size: 8px;&quot;&gt;2&lt;/font&gt;" style="text;html=1;align=center;verticalAlign=middle;whiteSpace=wrap;rounded=0;fontSize=8;fontStyle=1" vertex="1" parent="1">
          <mxGeometry x="695.23" y="295" width="10" height="10" as="geometry" />
        </mxCell>
        <mxCell id="Z4uplLoxIJL1rz2Afq5--119" value="&lt;font style=&quot;font-size: 8px;&quot;&gt;selCtrl0&lt;/font&gt;" style="text;html=1;align=center;verticalAlign=middle;whiteSpace=wrap;rounded=0;fontSize=8;fontStyle=1" vertex="1" parent="1">
          <mxGeometry x="741" y="216.36" width="25" height="10" as="geometry" />
        </mxCell>
        <mxCell id="Z4uplLoxIJL1rz2Afq5--120" value="" style="endArrow=none;html=1;rounded=0;exitX=1;exitY=0.5;exitDx=0;exitDy=0;fontStyle=1" edge="1" parent="1">
          <mxGeometry width="50" height="50" relative="1" as="geometry">
            <mxPoint x="735.48" y="222.00000000000003" as="sourcePoint" />
            <mxPoint x="727" y="222.00000000000003" as="targetPoint" />
          </mxGeometry>
        </mxCell>
        <mxCell id="Z4uplLoxIJL1rz2Afq5--121" value="&lt;font style=&quot;font-size: 8px;&quot;&gt;1&lt;/font&gt;" style="text;html=1;align=center;verticalAlign=middle;whiteSpace=wrap;rounded=0;fontStyle=1" vertex="1" parent="1">
          <mxGeometry x="695.48" y="208.64" width="10" height="10" as="geometry" />
        </mxCell>
        <mxCell id="Z4uplLoxIJL1rz2Afq5--122" value="" style="endArrow=none;html=1;rounded=0;exitX=0.5;exitY=0;exitDx=0;exitDy=0;fontStyle=1" edge="1" parent="1">
          <mxGeometry width="50" height="50" relative="1" as="geometry">
            <mxPoint x="685.31" y="208.64" as="sourcePoint" />
            <mxPoint x="685" y="140" as="targetPoint" />
          </mxGeometry>
        </mxCell>
        <mxCell id="Z4uplLoxIJL1rz2Afq5--136" style="edgeStyle=orthogonalEdgeStyle;rounded=0;orthogonalLoop=1;jettySize=auto;html=1;endArrow=classic;endFill=1;" edge="1" parent="1" source="Z4uplLoxIJL1rz2Afq5--124">
          <mxGeometry relative="1" as="geometry">
            <mxPoint x="184.5" y="120" as="targetPoint" />
          </mxGeometry>
        </mxCell>
        <mxCell id="Z4uplLoxIJL1rz2Afq5--124" value="A" style="text;html=1;align=center;verticalAlign=middle;whiteSpace=wrap;rounded=0;fontSize=14;" vertex="1" parent="1">
          <mxGeometry x="174" y="70" width="21" height="20" as="geometry" />
        </mxCell>
        <mxCell id="Z4uplLoxIJL1rz2Afq5--129" value="B" style="text;html=1;align=center;verticalAlign=middle;whiteSpace=wrap;rounded=0;fontSize=14;" vertex="1" parent="1">
          <mxGeometry x="254.43" y="70" width="20.57" height="20" as="geometry" />
        </mxCell>
        <mxCell id="Z4uplLoxIJL1rz2Afq5--130" value="C" style="text;html=1;align=center;verticalAlign=middle;whiteSpace=wrap;rounded=0;fontSize=14;" vertex="1" parent="1">
          <mxGeometry x="335" y="70" width="20" height="20" as="geometry" />
        </mxCell>
        <mxCell id="Z4uplLoxIJL1rz2Afq5--131" value="D" style="text;html=1;align=center;verticalAlign=middle;whiteSpace=wrap;rounded=0;fontSize=14;" vertex="1" parent="1">
          <mxGeometry x="415" y="70" width="20" height="20" as="geometry" />
        </mxCell>
        <mxCell id="Z4uplLoxIJL1rz2Afq5--132" value="E" style="text;html=1;align=center;verticalAlign=middle;whiteSpace=wrap;rounded=0;fontSize=14;" vertex="1" parent="1">
          <mxGeometry x="495" y="70" width="20" height="20" as="geometry" />
        </mxCell>
        <mxCell id="Z4uplLoxIJL1rz2Afq5--134" value="F" style="text;html=1;align=center;verticalAlign=middle;whiteSpace=wrap;rounded=0;fontSize=14;" vertex="1" parent="1">
          <mxGeometry x="574.62" y="70" width="20.38" height="20" as="geometry" />
        </mxCell>
        <mxCell id="Z4uplLoxIJL1rz2Afq5--139" style="edgeStyle=orthogonalEdgeStyle;rounded=0;orthogonalLoop=1;jettySize=auto;html=1;entryX=0.286;entryY=0;entryDx=0;entryDy=0;entryPerimeter=0;endArrow=classic;endFill=1;" edge="1" parent="1" source="Z4uplLoxIJL1rz2Afq5--129" target="Z4uplLoxIJL1rz2Afq5--123">
          <mxGeometry relative="1" as="geometry" />
        </mxCell>
        <mxCell id="Z4uplLoxIJL1rz2Afq5--144" style="edgeStyle=orthogonalEdgeStyle;rounded=0;orthogonalLoop=1;jettySize=auto;html=1;entryX=0.387;entryY=0;entryDx=0;entryDy=0;entryPerimeter=0;endArrow=classic;endFill=1;" edge="1" parent="1" source="Z4uplLoxIJL1rz2Afq5--130" target="Z4uplLoxIJL1rz2Afq5--123">
          <mxGeometry relative="1" as="geometry" />
        </mxCell>
        <mxCell id="Z4uplLoxIJL1rz2Afq5--145" style="edgeStyle=orthogonalEdgeStyle;rounded=0;orthogonalLoop=1;jettySize=auto;html=1;entryX=0.488;entryY=0;entryDx=0;entryDy=0;entryPerimeter=0;endArrow=classic;endFill=1;" edge="1" parent="1">
          <mxGeometry relative="1" as="geometry">
            <mxPoint x="425.0061349693251" y="90" as="sourcePoint" />
            <mxPoint x="424.986" y="120" as="targetPoint" />
          </mxGeometry>
        </mxCell>
        <mxCell id="Z4uplLoxIJL1rz2Afq5--146" style="edgeStyle=orthogonalEdgeStyle;rounded=0;orthogonalLoop=1;jettySize=auto;html=1;entryX=0.589;entryY=0;entryDx=0;entryDy=0;entryPerimeter=0;endArrow=classic;endFill=1;" edge="1" parent="1" source="Z4uplLoxIJL1rz2Afq5--132" target="Z4uplLoxIJL1rz2Afq5--123">
          <mxGeometry relative="1" as="geometry" />
        </mxCell>
        <mxCell id="Z4uplLoxIJL1rz2Afq5--148" style="edgeStyle=orthogonalEdgeStyle;rounded=0;orthogonalLoop=1;jettySize=auto;html=1;entryX=0.689;entryY=0;entryDx=0;entryDy=0;entryPerimeter=0;endArrow=classic;endFill=1;" edge="1" parent="1" source="Z4uplLoxIJL1rz2Afq5--134" target="Z4uplLoxIJL1rz2Afq5--123">
          <mxGeometry relative="1" as="geometry" />
        </mxCell>
        <mxCell id="Z4uplLoxIJL1rz2Afq5--149" value="" style="endArrow=none;html=1;rounded=0;" edge="1" parent="1">
          <mxGeometry width="50" height="50" relative="1" as="geometry">
            <mxPoint x="176.17" y="110" as="sourcePoint" />
            <mxPoint x="195" y="100" as="targetPoint" />
          </mxGeometry>
        </mxCell>
        <mxCell id="Z4uplLoxIJL1rz2Afq5--150" value="" style="endArrow=none;html=1;rounded=0;" edge="1" parent="1">
          <mxGeometry width="50" height="50" relative="1" as="geometry">
            <mxPoint x="255.29999999999998" y="110" as="sourcePoint" />
            <mxPoint x="274.13" y="100" as="targetPoint" />
          </mxGeometry>
        </mxCell>
        <mxCell id="Z4uplLoxIJL1rz2Afq5--151" value="&lt;font style=&quot;font-size: 7px;&quot;&gt;16&lt;/font&gt;" style="text;html=1;align=center;verticalAlign=middle;whiteSpace=wrap;rounded=0;" vertex="1" parent="1">
          <mxGeometry x="195" y="100" width="10" height="10" as="geometry" />
        </mxCell>
        <mxCell id="Z4uplLoxIJL1rz2Afq5--152" value="&lt;font style=&quot;font-size: 7px;&quot;&gt;16&lt;/font&gt;" style="text;html=1;align=center;verticalAlign=middle;whiteSpace=wrap;rounded=0;" vertex="1" parent="1">
          <mxGeometry x="275" y="100" width="10" height="10" as="geometry" />
        </mxCell>
        <mxCell id="Z4uplLoxIJL1rz2Afq5--153" value="&lt;font style=&quot;font-size: 7px;&quot;&gt;16&lt;/font&gt;" style="text;html=1;align=center;verticalAlign=middle;whiteSpace=wrap;rounded=0;" vertex="1" parent="1">
          <mxGeometry x="355" y="100" width="10" height="10" as="geometry" />
        </mxCell>
        <mxCell id="Z4uplLoxIJL1rz2Afq5--156" value="" style="endArrow=none;html=1;rounded=0;" edge="1" parent="1">
          <mxGeometry width="50" height="50" relative="1" as="geometry">
            <mxPoint x="335.59" y="110" as="sourcePoint" />
            <mxPoint x="354.42" y="100" as="targetPoint" />
          </mxGeometry>
        </mxCell>
        <mxCell id="Z4uplLoxIJL1rz2Afq5--157" value="&lt;font style=&quot;font-size: 7px;&quot;&gt;16&lt;/font&gt;" style="text;html=1;align=center;verticalAlign=middle;whiteSpace=wrap;rounded=0;" vertex="1" parent="1">
          <mxGeometry x="435.40999999999997" y="100" width="10" height="10" as="geometry" />
        </mxCell>
        <mxCell id="Z4uplLoxIJL1rz2Afq5--158" value="" style="endArrow=none;html=1;rounded=0;" edge="1" parent="1">
          <mxGeometry width="50" height="50" relative="1" as="geometry">
            <mxPoint x="416" y="110" as="sourcePoint" />
            <mxPoint x="434.83000000000004" y="100" as="targetPoint" />
          </mxGeometry>
        </mxCell>
        <mxCell id="Z4uplLoxIJL1rz2Afq5--161" value="&lt;font style=&quot;font-size: 7px;&quot;&gt;16&lt;/font&gt;" style="text;html=1;align=center;verticalAlign=middle;whiteSpace=wrap;rounded=0;" vertex="1" parent="1">
          <mxGeometry x="514.41" y="100" width="10" height="10" as="geometry" />
        </mxCell>
        <mxCell id="Z4uplLoxIJL1rz2Afq5--162" value="" style="endArrow=none;html=1;rounded=0;" edge="1" parent="1">
          <mxGeometry width="50" height="50" relative="1" as="geometry">
            <mxPoint x="495" y="110" as="sourcePoint" />
            <mxPoint x="513.83" y="100" as="targetPoint" />
          </mxGeometry>
        </mxCell>
        <mxCell id="Z4uplLoxIJL1rz2Afq5--163" value="&lt;font style=&quot;font-size: 7px;&quot;&gt;16&lt;/font&gt;" style="text;html=1;align=center;verticalAlign=middle;whiteSpace=wrap;rounded=0;" vertex="1" parent="1">
          <mxGeometry x="594.55" y="100" width="10" height="10" as="geometry" />
        </mxCell>
        <mxCell id="Z4uplLoxIJL1rz2Afq5--164" value="" style="endArrow=none;html=1;rounded=0;" edge="1" parent="1">
          <mxGeometry width="50" height="50" relative="1" as="geometry">
            <mxPoint x="575.14" y="110" as="sourcePoint" />
            <mxPoint x="593.97" y="100" as="targetPoint" />
          </mxGeometry>
        </mxCell>
        <mxCell id="Z4uplLoxIJL1rz2Afq5--166" value="CLK" style="text;html=1;align=center;verticalAlign=middle;whiteSpace=wrap;rounded=0;fontSize=14;" vertex="1" parent="1">
          <mxGeometry x="85" y="70" width="40" height="20" as="geometry" />
        </mxCell>
        <mxCell id="Z4uplLoxIJL1rz2Afq5--167" style="edgeStyle=orthogonalEdgeStyle;rounded=0;orthogonalLoop=1;jettySize=auto;html=1;entryX=0.085;entryY=0;entryDx=0;entryDy=0;entryPerimeter=0;endArrow=none;endFill=0;" edge="1" parent="1" source="Z4uplLoxIJL1rz2Afq5--166" target="Z4uplLoxIJL1rz2Afq5--123">
          <mxGeometry relative="1" as="geometry" />
        </mxCell>
        <mxCell id="Z4uplLoxIJL1rz2Afq5--168" value="ControlWord" style="text;html=1;align=center;verticalAlign=middle;whiteSpace=wrap;rounded=0;fontSize=14;" vertex="1" parent="1">
          <mxGeometry x="635" y="70" width="100" height="20" as="geometry" />
        </mxCell>
        <mxCell id="Z4uplLoxIJL1rz2Afq5--170" style="edgeStyle=orthogonalEdgeStyle;rounded=0;orthogonalLoop=1;jettySize=auto;html=1;entryX=0.816;entryY=0.002;entryDx=0;entryDy=0;entryPerimeter=0;endArrow=classic;endFill=1;" edge="1" parent="1" source="Z4uplLoxIJL1rz2Afq5--168" target="Z4uplLoxIJL1rz2Afq5--123">
          <mxGeometry relative="1" as="geometry" />
        </mxCell>
        <mxCell id="Z4uplLoxIJL1rz2Afq5--171" value="" style="endArrow=none;html=1;rounded=0;" edge="1" parent="1">
          <mxGeometry width="50" height="50" relative="1" as="geometry">
            <mxPoint x="675.48" y="110" as="sourcePoint" />
            <mxPoint x="694.3100000000001" y="100" as="targetPoint" />
          </mxGeometry>
        </mxCell>
        <mxCell id="Z4uplLoxIJL1rz2Afq5--172" value="&lt;font style=&quot;font-size: 7px;&quot;&gt;6&lt;/font&gt;" style="text;html=1;align=center;verticalAlign=middle;whiteSpace=wrap;rounded=0;" vertex="1" parent="1">
          <mxGeometry x="695.23" y="100" width="10" height="10" as="geometry" />
        </mxCell>
        <mxCell id="Z4uplLoxIJL1rz2Afq5--174" value="Reset" style="text;html=1;align=center;verticalAlign=middle;whiteSpace=wrap;rounded=0;fontSize=14;" vertex="1" parent="1">
          <mxGeometry x="45" y="70" width="40" height="20" as="geometry" />
        </mxCell>
        <mxCell id="Z4uplLoxIJL1rz2Afq5--175" style="edgeStyle=orthogonalEdgeStyle;rounded=0;orthogonalLoop=1;jettySize=auto;html=1;entryX=0.034;entryY=0;entryDx=0;entryDy=0;entryPerimeter=0;endArrow=classic;endFill=1;" edge="1" parent="1" source="Z4uplLoxIJL1rz2Afq5--174" target="Z4uplLoxIJL1rz2Afq5--123">
          <mxGeometry relative="1" as="geometry" />
        </mxCell>
        <mxCell id="Z4uplLoxIJL1rz2Afq5--177" value="dataOut" style="text;html=1;align=center;verticalAlign=middle;whiteSpace=wrap;rounded=0;" vertex="1" parent="1">
          <mxGeometry x="403.94" y="470" width="60" height="30" as="geometry" />
        </mxCell>
        <mxCell id="Z4uplLoxIJL1rz2Afq5--179" value="" style="endArrow=none;html=1;rounded=0;" edge="1" parent="1">
          <mxGeometry width="50" height="50" relative="1" as="geometry">
            <mxPoint x="423" y="460" as="sourcePoint" />
            <mxPoint x="448" y="450" as="targetPoint" />
          </mxGeometry>
        </mxCell>
        <mxCell id="Z4uplLoxIJL1rz2Afq5--180" value="&lt;font style=&quot;font-size: 7px;&quot;&gt;32&lt;/font&gt;" style="text;html=1;align=center;verticalAlign=middle;whiteSpace=wrap;rounded=0;" vertex="1" parent="1">
          <mxGeometry x="425" y="440" width="60" height="30" as="geometry" />
        </mxCell>
      </root>
    </mxGraphModel>
  </diagram>
</mxfile>
